<?xml version="1.0" encoding="UTF-8"?>
<svg id="design" fill="white" xmlns="http://www.w3.org/2000/svg" viewBox="0 0 24 24">
  <path d="M12,4.76c.65,0,1.19-.53,1.19-1.19s-.53-1.19-1.19-1.19c-1.3,0-2.56.25-3.74.76-1.14.48-2.17,1.18-3.05,2.06-.88.88-1.58,1.91-2.06,3.05-.5,1.19-.76,2.44-.76,3.74,0,.65.53,1.19,1.19,1.19s1.19-.53,1.19-1.19c0-3.99,3.25-7.24,7.24-7.24Z"/>
  <path d="M13.19,7.77c0-.65-.53-1.19-1.19-1.19-1.45,0-2.81.56-3.83,1.59s-1.59,2.38-1.59,3.83c0,.65.53,1.19,1.19,1.19s1.19-.53,1.19-1.19c0-1.68,1.36-3.04,3.04-3.04.65,0,1.19-.53,1.19-1.19Z"/>
  <path d="M13.81,19.24h-1.81c-.65,0-1.19.53-1.19,1.19s.53,1.19,1.19,1.19h1.81c.65,0,1.19-.53,1.19-1.19s-.53-1.19-1.19-1.19Z"/>
  <path d="M20.42,10.81h-8.42c-.25,0-.47.07-.66.2-.32.21-.52.57-.52.98s.21.77.52.98c.19.13.42.2.66.2h8.42c.65,0,1.19-.53,1.19-1.19s-.53-1.19-1.19-1.19Z"/>
  <path d="M17.12,15.03h-5.19c-.62.04-1.11.55-1.11,1.19s.49,1.15,1.11,1.18h0s5.19,0,5.19,0c.65,0,1.19-.53,1.19-1.19s-.53-1.19-1.19-1.19Z"/>
</svg>