<?xml version="1.0" encoding="UTF-8"?>
<svg id="design" xmlns="http://www.w3.org/2000/svg" viewBox="0 0 48 48">
  <path d="M20.6,16.25c-1.86,0-3.67.36-5.37,1.08-1.64.69-3.12,1.69-4.38,2.95-1.27,1.27-2.26,2.74-2.95,4.38-.72,1.7-1.08,3.51-1.08,5.37,0,.94.76,1.7,1.7,1.7s1.7-.76,1.7-1.7c0-5.73,4.66-10.39,10.39-10.39.94,0,1.7-.76,1.7-1.7s-.76-1.7-1.7-1.7Z"/>
  <path d="M20.6,22.28c-2.08,0-4.03.81-5.49,2.28-1.47,1.47-2.28,3.42-2.28,5.49,0,.94.76,1.7,1.7,1.7s1.7-.76,1.7-1.7c0-2.41,1.96-4.37,4.37-4.37.94,0,1.7-.76,1.7-1.7s-.76-1.7-1.7-1.7Z"/>
  <circle cx="20.6" cy="30.04" r="1.7"/>
  <path d="M37.79,27.45v2.59c0,.94.76,1.7,1.7,1.7s1.7-.76,1.7-1.7v-2.59c0-.94-.76-1.7-1.7-1.7s-1.7.76-1.7,1.7Z"/>
  <path d="M25.7,17.96v12.09c0,.94.76,1.7,1.7,1.7s1.7-.76,1.7-1.7v-12.09c0-.94-.76-1.7-1.7-1.7s-1.7.76-1.7,1.7Z"/>
  <path d="M31.75,22.7v7.44h0c.05.89.79,1.6,1.7,1.6s1.65-.71,1.7-1.6h0v-7.44c0-.94-.76-1.7-1.7-1.7s-1.7.76-1.7,1.7Z"/>
</svg>