<?xml version="1.0" encoding="UTF-8"?>
<svg xmlns="http://www.w3.org/2000/svg" viewBox="0 0 512 512">
  <defs>
    <style>
      .cls-1 {
        fill: #fff;
      }
    </style>
  </defs>
  <g id="background">
    <rect y="0" width="512" height="512"/>
  </g>
  <g id="design">
    <path class="cls-1" d="M143.28,321.05c-3.98-7.13-9.54-12.84-16.54-16.99-6.98-4.13-15.11-6.22-24.15-6.22s-17.23,2.1-24.28,6.23c-7.07,4.13-12.75,9.85-16.89,17-4.14,7.15-6.23,15.44-6.23,24.65s2.1,17.17,6.24,24.55c4.15,7.38,9.87,13.3,17.01,17.58,7.15,4.28,15.28,6.45,24.15,6.45s16.92-2.17,23.89-6.44c6.98-4.27,12.6-10.15,16.68-17.47,4.06-7.3,6.12-15.6,6.12-24.67s-2.02-17.53-6-24.67ZM123.85,369.71c-5.5,6.42-12.65,9.68-21.26,9.68s-16.07-3.25-21.71-9.66c-5.59-6.33-8.42-14.41-8.42-24.01s2.84-17.61,8.44-23.8c5.65-6.24,12.95-9.41,21.69-9.41s15.74,3.17,21.24,9.43c5.43,6.19,8.18,14.19,8.18,23.78s-2.75,17.65-8.16,23.99Z"/>
    <path class="cls-1" d="M182.38,322.31v10.64c0,4.28,2.45,6.73,6.72,6.73h22.23c2.48,0,4.38.67,5.82,2.04,1.41,1.36,2.1,3.14,2.1,5.42,0,2.14-.73,3.81-2.31,5.26-1.59,1.48-3.43,2.19-5.61,2.19h-22.23c-4.21,0-6.72,2.52-6.72,6.73v25.06c0,2.15-.81,3.89-2.56,5.51-1.76,1.62-3.75,2.41-6.08,2.41s-4.33-.79-6.09-2.41c-1.72-1.59-2.55-3.4-2.55-5.51v-73.52c0-3.98,1.15-7.12,3.42-9.32,2.28-2.22,5.39-3.34,9.24-3.34h36.87c2.62,0,4.56.66,5.91,2.02,1.36,1.35,2.02,3.21,2.02,5.67,0,2.18-.71,3.91-2.25,5.45s-3.37,2.25-5.68,2.25h-25.53c-4.27,0-6.72,2.45-6.72,6.72Z"/>
    <path class="cls-1" d="M289.57,373.72c-1.32,0-2.57.42-3.82,1.29-2.53,1.86-5.53,3.28-8.89,4.19-3.3.92-6.66,1.38-9.98,1.38-5.34,0-10.23-1.15-14.53-3.43-4.7-2.48-7.09-5.98-7.09-10.4,0-3.21,2.01-4.36,3.89-4.36h39.24c6.05,0,8.87-3.27,8.87-10.29,0-4.51-1.18-8.86-3.52-12.95-2.33-4.07-5.89-7.48-10.59-10.13-4.72-2.65-10.83-4-18.16-4-10.3,0-18.96,3.16-25.71,9.4-6.71,6.2-10.11,14.93-10.11,25.95s3.46,18.9,10.3,24.86c6.91,6.02,15.58,9.07,25.75,9.07,5.02,0,10.22-.69,15.46-2.06,5.13-1.34,9.04-3.12,11.63-5.28,2.5-2.1,3.77-4.28,3.77-6.49,0-1.87-.61-3.39-1.93-4.77-1.29-1.35-2.75-1.98-4.58-1.98ZM250.96,340.88c3.4-2.35,7.8-3.54,13.08-3.54,4.95,0,9.1,1.11,12.35,3.29,3.48,2.36,5.25,5.11,5.25,8.16,0,2.63-1.59,3.38-2.27,3.58-.74.21-1.35.31-1.86.31h-28.12c-2.37,0-3.9-1.43-3.9-3.65,0-2.89,1.84-5.63,5.47-8.15Z"/>
    <path class="cls-1" d="M368.75,373.72c-1.32,0-2.57.42-3.82,1.29-2.53,1.86-5.53,3.28-8.89,4.19-3.3.92-6.66,1.38-9.98,1.38-5.34,0-10.23-1.15-14.53-3.43-4.7-2.48-7.09-5.98-7.09-10.4,0-3.21,2.01-4.36,3.89-4.36h39.24c6.05,0,8.87-3.27,8.87-10.29,0-4.52-1.18-8.88-3.52-12.95-2.33-4.07-5.89-7.48-10.59-10.13-4.72-2.65-10.83-4-18.16-4-10.29,0-18.95,3.16-25.71,9.41-6.71,6.19-10.11,14.92-10.11,25.94s3.47,18.91,10.31,24.86c6.9,6.02,15.57,9.07,25.75,9.07,5.01,0,10.21-.69,15.45-2.06,5.12-1.34,9.04-3.12,11.63-5.28,2.5-2.1,3.77-4.28,3.77-6.49,0-1.87-.61-3.39-1.93-4.77-1.28-1.35-2.74-1.98-4.58-1.98ZM330.15,340.88c3.39-2.35,7.79-3.54,13.08-3.54,4.95,0,9.1,1.11,12.34,3.29,3.49,2.36,5.26,5.1,5.26,8.16,0,2.63-1.59,3.38-2.28,3.58-.74.21-1.35.31-1.85.31h-28.13c-2.36,0-3.89-1.43-3.89-3.65,0-2.9,1.84-5.64,5.47-8.15Z"/>
    <path class="cls-1" d="M454.5,294.13c-1.6-1.48-3.67-2.2-6.33-2.2-2.48,0-4.42.71-5.94,2.16-1.49,1.44-2.22,3.17-2.22,5.3v35.5l-1.68-1.53-1.67-1.53c-4.95-4.52-10.63-6.81-16.85-6.81-9.79,0-17.69,3.1-23.5,9.2-5.82,6.12-8.78,14.6-8.78,25.21s3.04,19.17,9.02,25.45c5.95,6.25,14.02,9.42,23.97,9.42,6.55,0,12.14-2.05,16.62-6.1l1.15-1.04,1.14-1.04.48,1.47.48,1.48c1.15,3.57,3.62,5.23,7.78,5.23,2.68,0,4.76-.69,6.37-2.1,1.55-1.36,2.27-2.98,2.27-5.11v-87.94c0-1.98-.73-3.57-2.31-5.02ZM435.15,373.38c-3.3,3.84-7.67,5.78-12.98,5.78s-9.92-1.94-13.22-5.78c-3.22-3.74-4.85-8.44-4.85-13.95s1.65-10.37,4.91-13.89c3.29-3.56,7.72-5.37,13.16-5.37s9.64,1.81,12.93,5.37c3.26,3.52,4.91,8.19,4.91,13.89s-1.64,10.21-4.86,13.95Z"/>
    <g>
      <g>
        <path class="cls-1" d="M232.79,116.69c-14.41,0-28.39,2.83-41.56,8.4-12.71,5.38-24.13,13.07-33.93,22.87-9.8,9.8-17.5,21.22-22.87,33.93-5.57,13.17-8.4,27.15-8.4,41.56,0,6.78,5.52,12.3,12.3,12.3s12.3-5.52,12.3-12.3c0-45.31,36.85-82.16,82.16-82.16,6.78,0,12.29-5.52,12.29-12.3s-5.51-12.3-12.29-12.3ZM232.79,140.29c-45.85,0-83.16,37.31-83.16,83.16,0,6.23-5.07,11.3-11.3,11.3s-11.3-5.07-11.3-11.3c0-14.26,2.8-28.12,8.32-41.17,5.32-12.59,12.94-23.9,22.66-33.61,9.69-9.7,21-17.32,33.61-22.66,13.05-5.52,26.91-8.32,41.17-8.32,6.23,0,11.29,5.07,11.29,11.3s-5.06,11.3-11.29,11.3Z"/>
        <path class="cls-1" d="M244.08,128.99c0,6.23-5.06,11.3-11.29,11.3-45.85,0-83.16,37.31-83.16,83.16,0,6.23-5.07,11.3-11.3,11.3s-11.3-5.07-11.3-11.3c0-14.26,2.8-28.12,8.32-41.17,5.32-12.59,12.94-23.9,22.66-33.61,9.69-9.7,21-17.32,33.61-22.66,13.05-5.52,26.91-8.32,41.17-8.32,6.23,0,11.29,5.07,11.29,11.3Z"/>
      </g>
      <g>
        <path class="cls-1" d="M232.79,163.75c-15.95,0-30.94,6.21-42.22,17.48-11.28,11.28-17.49,26.27-17.49,42.22,0,6.78,5.52,12.3,12.3,12.3s12.3-5.52,12.3-12.3c0-19.36,15.75-35.11,35.11-35.11,6.78,0,12.29-5.52,12.29-12.3s-5.51-12.29-12.29-12.29ZM232.79,187.34c-19.91,0-36.11,16.2-36.11,36.11,0,6.23-5.07,11.3-11.3,11.3s-11.3-5.07-11.3-11.3c0-15.68,6.11-30.42,17.2-41.51s25.83-17.19,41.51-17.19c6.23,0,11.29,5.06,11.29,11.29s-5.06,11.3-11.29,11.3Z"/>
        <path class="cls-1" d="M244.08,176.04c0,6.23-5.06,11.3-11.29,11.3-19.91,0-36.11,16.2-36.11,36.11,0,6.23-5.07,11.3-11.3,11.3s-11.3-5.07-11.3-11.3c0-15.68,6.11-30.42,17.2-41.51s25.83-17.19,41.51-17.19c6.23,0,11.29,5.06,11.29,11.29Z"/>
      </g>
      <g>
        <path class="cls-1" d="M232.79,211.15c-6.78,0-12.3,5.52-12.3,12.3s5.52,12.3,12.3,12.3,12.29-5.52,12.29-12.3-5.51-12.3-12.29-12.3ZM232.79,234.75c-6.23,0-11.3-5.07-11.3-11.3s5.07-11.3,11.3-11.3,11.29,5.07,11.29,11.3-5.06,11.3-11.29,11.3Z"/>
        <path class="cls-1" d="M244.08,223.45c0,6.23-5.06,11.3-11.29,11.3s-11.3-5.07-11.3-11.3,5.07-11.3,11.3-11.3,11.29,5.07,11.29,11.3Z"/>
      </g>
      <g>
        <path class="cls-1" d="M380.43,190.91c-6.78,0-12.3,5.51-12.3,12.29v20.25c0,6.78,5.52,12.3,12.3,12.3s12.3-5.52,12.3-12.3v-20.25c0-6.78-5.52-12.29-12.3-12.29ZM391.73,223.45c0,6.23-5.07,11.3-11.3,11.3s-11.3-5.07-11.3-11.3v-20.25c0-6.23,5.07-11.29,11.3-11.29s11.3,5.06,11.3,11.29v20.25Z"/>
        <path class="cls-1" d="M391.73,203.2v20.25c0,6.23-5.07,11.3-11.3,11.3s-11.3-5.07-11.3-11.3v-20.25c0-6.23,5.07-11.29,11.3-11.29s11.3,5.06,11.3,11.29Z"/>
      </g>
      <g>
        <path class="cls-1" d="M285.97,116.7c-6.78,0-12.29,5.51-12.29,12.29v94.46c0,6.78,5.51,12.3,12.29,12.3s12.3-5.52,12.3-12.3v-94.46c0-6.78-5.52-12.29-12.3-12.29ZM297.27,223.45c0,6.23-5.07,11.3-11.3,11.3s-11.29-5.07-11.29-11.3v-94.46c0-6.23,5.06-11.29,11.29-11.29s11.3,5.06,11.3,11.29v94.46Z"/>
        <path class="cls-1" d="M297.27,128.99v94.46c0,6.23-5.07,11.3-11.3,11.3s-11.29-5.07-11.29-11.3v-94.46c0-6.23,5.06-11.29,11.29-11.29s11.3,5.06,11.3,11.29Z"/>
      </g>
      <g>
        <path class="cls-1" d="M333.2,153.8c-6.78,0-12.29,5.52-12.29,12.3v57.81l.02.28c.38,6.48,5.77,11.56,12.27,11.56s11.89-5.08,12.27-11.56l.03-.41v-57.68c0-6.78-5.52-12.3-12.3-12.3ZM344.5,223.74l-.03.39c-.35,5.96-5.3,10.62-11.27,10.62s-10.92-4.66-11.27-10.63l-.02-.25v-57.77c0-6.23,5.06-11.3,11.29-11.3s11.3,5.07,11.3,11.3v57.64Z"/>
        <path class="cls-1" d="M344.5,166.1v57.64l-.03.39c-.35,5.96-5.3,10.62-11.27,10.62s-10.92-4.66-11.27-10.63l-.02-.25v-57.77c0-6.23,5.06-11.3,11.29-11.3s11.3,5.07,11.3,11.3Z"/>
      </g>
    </g>
  </g>
</svg>