<?xml version="1.0" encoding="UTF-8"?>
<svg xmlns="http://www.w3.org/2000/svg" viewBox="0 0 192 192">
  <defs>
    <style>
      .cls-1 {
        fill: #fff;
      }
    </style>
  </defs>
  <g id="background">
    <rect y="0" width="192" height="192"/>
  </g>
  <g id="design">
    <path class="cls-1" d="M53.73,120.39c-1.49-2.67-3.58-4.82-6.2-6.37-2.62-1.55-5.67-2.33-9.06-2.33s-6.46.79-9.1,2.34c-2.65,1.55-4.78,3.69-6.33,6.37-1.55,2.68-2.34,5.79-2.34,9.24s.79,6.44,2.34,9.21c1.56,2.77,3.7,4.99,6.38,6.59,2.68,1.61,5.73,2.42,9.06,2.42s6.34-.81,8.96-2.42c2.62-1.6,4.72-3.81,6.25-6.55,1.52-2.74,2.29-5.85,2.29-9.25s-.76-6.57-2.25-9.25ZM46.44,138.64c-2.06,2.41-4.74,3.63-7.97,3.63s-6.03-1.22-8.14-3.62c-2.1-2.37-3.16-5.4-3.16-9s1.07-6.6,3.17-8.92c2.12-2.34,4.86-3.53,8.13-3.53s5.9,1.19,7.96,3.54c2.04,2.32,3.07,5.32,3.07,8.92s-1.03,6.62-3.06,9Z"/>
    <path class="cls-1" d="M68.39,120.87v3.99c0,1.61.92,2.52,2.52,2.52h8.34c.93,0,1.64.25,2.18.76.53.51.79,1.18.79,2.03,0,.8-.27,1.43-.87,1.97-.6.56-1.29.82-2.1.82h-8.34c-1.58,0-2.52.95-2.52,2.52v9.4c0,.81-.3,1.46-.96,2.07-.66.61-1.41.9-2.28.9s-1.62-.3-2.28-.9c-.64-.6-.96-1.27-.96-2.07v-27.57c0-1.49.43-2.67,1.28-3.5.86-.83,2.02-1.25,3.46-1.25h13.83c.98,0,1.71.25,2.22.76.51.51.76,1.2.76,2.13,0,.82-.27,1.47-.84,2.04s-1.26.84-2.13.84h-9.57c-1.6,0-2.52.92-2.52,2.52Z"/>
    <path class="cls-1" d="M108.59,140.15c-.5,0-.96.16-1.43.48-.95.7-2.07,1.23-3.33,1.57-1.24.35-2.5.52-3.74.52-2,0-3.84-.43-5.45-1.29-1.76-.93-2.66-2.24-2.66-3.9,0-1.2.75-1.64,1.46-1.64h14.71c2.27,0,3.33-1.23,3.33-3.86,0-1.69-.44-3.32-1.32-4.86-.87-1.53-2.21-2.8-3.97-3.8-1.77-.99-4.06-1.5-6.81-1.5-3.86,0-7.11,1.19-9.64,3.53-2.52,2.33-3.79,5.6-3.79,9.73s1.3,7.09,3.86,9.32c2.59,2.26,5.84,3.4,9.66,3.4,1.88,0,3.83-.26,5.8-.77,1.92-.5,3.39-1.17,4.36-1.98.94-.79,1.41-1.6,1.41-2.43,0-.7-.23-1.27-.72-1.79-.48-.51-1.03-.74-1.72-.74ZM94.11,127.83c1.28-.88,2.92-1.33,4.91-1.33,1.86,0,3.41.42,4.63,1.23,1.31.88,1.97,1.92,1.97,3.06,0,.99-.6,1.27-.85,1.34-.28.08-.51.12-.7.12h-10.54c-.89,0-1.46-.54-1.46-1.37,0-1.08.69-2.11,2.05-3.06Z"/>
    <path class="cls-1" d="M138.28,140.15c-.5,0-.96.16-1.43.48-.95.7-2.07,1.23-3.33,1.57-1.24.35-2.5.52-3.74.52-2,0-3.84-.43-5.45-1.29-1.76-.93-2.66-2.24-2.66-3.9,0-1.2.75-1.64,1.46-1.64h14.72c2.27,0,3.33-1.23,3.33-3.86,0-1.7-.44-3.33-1.32-4.86-.87-1.53-2.21-2.8-3.97-3.8-1.77-.99-4.06-1.5-6.81-1.5-3.86,0-7.11,1.19-9.64,3.53-2.52,2.32-3.79,5.59-3.79,9.73s1.3,7.09,3.87,9.32c2.59,2.26,5.84,3.4,9.66,3.4,1.88,0,3.83-.26,5.79-.77,1.92-.5,3.39-1.17,4.36-1.98.94-.79,1.41-1.6,1.41-2.43,0-.7-.23-1.27-.72-1.79-.48-.51-1.03-.74-1.72-.74ZM123.81,127.83c1.27-.88,2.92-1.33,4.91-1.33,1.86,0,3.41.42,4.63,1.23,1.31.88,1.97,1.91,1.97,3.06,0,.99-.6,1.27-.85,1.34-.28.08-.51.12-.69.12h-10.55c-.89,0-1.46-.54-1.46-1.37,0-1.09.69-2.12,2.05-3.06Z"/>
    <path class="cls-1" d="M170.44,110.3c-.6-.56-1.38-.83-2.37-.83-.93,0-1.66.27-2.23.81-.56.54-.83,1.19-.83,1.99v13.31l-.63-.57-.63-.57c-1.86-1.69-3.99-2.55-6.32-2.55-3.67,0-6.63,1.16-8.81,3.45-2.18,2.29-3.29,5.47-3.29,9.45s1.14,7.19,3.38,9.54c2.23,2.34,5.26,3.53,8.99,3.53,2.46,0,4.55-.77,6.23-2.29l.43-.39.43-.39.18.55.18.55c.43,1.34,1.36,1.96,2.92,1.96,1,0,1.79-.26,2.39-.79.58-.51.85-1.12.85-1.92v-32.98c0-.74-.27-1.34-.87-1.88ZM163.18,140.02c-1.24,1.44-2.88,2.17-4.87,2.17s-3.72-.73-4.96-2.17c-1.21-1.4-1.82-3.17-1.82-5.23s.62-3.89,1.84-5.21c1.23-1.33,2.9-2.01,4.94-2.01s3.62.68,4.85,2.01c1.22,1.32,1.84,3.07,1.84,5.21s-.61,3.83-1.82,5.23Z"/>
    <g>
      <g>
        <path class="cls-1" d="M87.3,43.76c-5.4,0-10.65,1.06-15.58,3.15-4.77,2.02-9.05,4.9-12.72,8.58-3.67,3.68-6.56,7.96-8.58,12.72-2.09,4.94-3.15,10.18-3.15,15.58,0,2.54,2.07,4.61,4.61,4.61s4.61-2.07,4.61-4.61c0-16.99,13.82-30.81,30.81-30.81,2.54,0,4.61-2.07,4.61-4.61s-2.07-4.61-4.61-4.61ZM87.3,52.61c-17.19,0-31.18,13.99-31.18,31.19,0,2.34-1.9,4.24-4.24,4.24s-4.24-1.9-4.24-4.24c0-5.35,1.05-10.54,3.12-15.44,2-4.72,4.85-8.96,8.5-12.6,3.63-3.64,7.88-6.5,12.6-8.5,4.89-2.07,10.09-3.12,15.44-3.12,2.34,0,4.23,1.9,4.23,4.24s-1.9,4.24-4.23,4.24Z"/>
        <path class="cls-1" d="M91.53,48.37c0,2.34-1.9,4.24-4.23,4.24-17.19,0-31.18,13.99-31.18,31.19,0,2.34-1.9,4.24-4.24,4.24s-4.24-1.9-4.24-4.24c0-5.35,1.05-10.54,3.12-15.44,2-4.72,4.85-8.96,8.5-12.6,3.63-3.64,7.88-6.5,12.6-8.5,4.89-2.07,10.09-3.12,15.44-3.12,2.34,0,4.23,1.9,4.23,4.24Z"/>
      </g>
      <g>
        <path class="cls-1" d="M87.3,61.41c-5.98,0-11.6,2.33-15.83,6.55-4.23,4.23-6.56,9.85-6.56,15.83,0,2.54,2.07,4.61,4.61,4.61s4.61-2.07,4.61-4.61c0-7.26,5.91-13.17,13.17-13.17,2.54,0,4.61-2.07,4.61-4.61s-2.07-4.61-4.61-4.61ZM87.3,70.25c-7.47,0-13.54,6.08-13.54,13.54,0,2.34-1.9,4.24-4.24,4.24s-4.24-1.9-4.24-4.24c0-5.88,2.29-11.41,6.45-15.57s9.69-6.45,15.57-6.45c2.34,0,4.23,1.9,4.23,4.23s-1.9,4.24-4.23,4.24Z"/>
        <path class="cls-1" d="M91.53,66.02c0,2.34-1.9,4.24-4.23,4.24-7.47,0-13.54,6.08-13.54,13.54,0,2.34-1.9,4.24-4.24,4.24s-4.24-1.9-4.24-4.24c0-5.88,2.29-11.41,6.45-15.57s9.69-6.45,15.57-6.45c2.34,0,4.23,1.9,4.23,4.23Z"/>
      </g>
      <g>
        <path class="cls-1" d="M87.3,79.18c-2.54,0-4.61,2.07-4.61,4.61s2.07,4.61,4.61,4.61,4.61-2.07,4.61-4.61-2.07-4.61-4.61-4.61ZM87.3,88.03c-2.34,0-4.24-1.9-4.24-4.24s1.9-4.24,4.24-4.24,4.23,1.9,4.23,4.24-1.9,4.24-4.23,4.24Z"/>
        <path class="cls-1" d="M91.53,83.79c0,2.34-1.9,4.24-4.23,4.24s-4.24-1.9-4.24-4.24,1.9-4.24,4.24-4.24,4.23,1.9,4.23,4.24Z"/>
      </g>
      <g>
        <path class="cls-1" d="M142.66,71.59c-2.54,0-4.61,2.07-4.61,4.61v7.59c0,2.54,2.07,4.61,4.61,4.61s4.61-2.07,4.61-4.61v-7.59c0-2.54-2.07-4.61-4.61-4.61ZM146.9,83.79c0,2.34-1.9,4.24-4.24,4.24s-4.24-1.9-4.24-4.24v-7.59c0-2.34,1.9-4.23,4.24-4.23s4.24,1.9,4.24,4.23v7.59Z"/>
        <path class="cls-1" d="M146.9,76.2v7.59c0,2.34-1.9,4.24-4.24,4.24s-4.24-1.9-4.24-4.24v-7.59c0-2.34,1.9-4.23,4.24-4.23s4.24,1.9,4.24,4.23Z"/>
      </g>
      <g>
        <path class="cls-1" d="M107.24,43.76c-2.54,0-4.61,2.07-4.61,4.61v35.42c0,2.54,2.07,4.61,4.61,4.61s4.61-2.07,4.61-4.61v-35.42c0-2.54-2.07-4.61-4.61-4.61ZM111.48,83.79c0,2.34-1.9,4.24-4.24,4.24s-4.23-1.9-4.23-4.24v-35.42c0-2.34,1.9-4.23,4.23-4.23s4.24,1.9,4.24,4.23v35.42Z"/>
        <path class="cls-1" d="M111.48,48.37v35.42c0,2.34-1.9,4.24-4.24,4.24s-4.23-1.9-4.23-4.24v-35.42c0-2.34,1.9-4.23,4.23-4.23s4.24,1.9,4.24,4.23Z"/>
      </g>
      <g>
        <path class="cls-1" d="M124.95,57.68c-2.54,0-4.61,2.07-4.61,4.61v21.78c.15,2.43,2.17,4.33,4.61,4.33s4.46-1.91,4.6-4.33v-.15s.01-21.63.01-21.63c0-2.54-2.07-4.61-4.61-4.61ZM129.19,83.9v.15c-.14,2.23-2,3.98-4.24,3.98s-4.09-1.75-4.23-3.99v-.09s0-21.66,0-21.66c0-2.34,1.9-4.24,4.23-4.24s4.24,1.9,4.24,4.24v21.62Z"/>
        <path class="cls-1" d="M129.19,62.29v21.76c-.14,2.23-2,3.98-4.24,3.98s-4.09-1.75-4.23-3.99v-.09s0-21.66,0-21.66c0-2.34,1.9-4.24,4.23-4.24s4.24,1.9,4.24,4.24Z"/>
      </g>
    </g>
  </g>
</svg>