<?xml version="1.0" encoding="UTF-8"?>
<svg xmlns="http://www.w3.org/2000/svg" viewBox="0 0 48 48">
  <defs>
    <style>
      .cls-1 {
        fill: #fff;
      }
    </style>
  </defs>
  <g id="background">
    <rect y="0" width="48" height="48"/>
  </g>
  <g id="design">
    <path class="cls-1" d="M13.43,30.1c-.37-.67-.89-1.2-1.55-1.59-.65-.39-1.42-.58-2.26-.58s-1.62.2-2.28.58c-.66.39-1.2.92-1.58,1.59-.39.67-.58,1.45-.58,2.31s.2,1.61.58,2.3c.39.69.93,1.25,1.59,1.65.67.4,1.43.6,2.26.6s1.59-.2,2.24-.6c.65-.4,1.18-.95,1.56-1.64.38-.68.57-1.46.57-2.31s-.19-1.64-.56-2.31ZM11.61,34.66c-.52.6-1.19.91-1.99.91s-1.51-.3-2.04-.91c-.52-.59-.79-1.35-.79-2.25s.27-1.65.79-2.23c.53-.58,1.21-.88,2.03-.88s1.48.3,1.99.88c.51.58.77,1.33.77,2.23s-.26,1.65-.76,2.25Z"/>
    <path class="cls-1" d="M17.1,30.22v1c0,.4.23.63.63.63h2.08c.23,0,.41.06.55.19.13.13.2.29.2.51,0,.2-.07.36-.22.49-.15.14-.32.21-.53.21h-2.08c-.39,0-.63.24-.63.63v2.35c0,.2-.08.36-.24.52-.17.15-.35.23-.57.23s-.41-.07-.57-.23c-.16-.15-.24-.32-.24-.52v-6.89c0-.37.11-.67.32-.87.21-.21.51-.31.87-.31h3.46c.25,0,.43.06.55.19.13.13.19.3.19.53,0,.2-.07.37-.21.51s-.32.21-.53.21h-2.39c-.4,0-.63.23-.63.63Z"/>
    <path class="cls-1" d="M27.15,35.04c-.12,0-.24.04-.36.12-.24.17-.52.31-.83.39-.31.09-.62.13-.94.13-.5,0-.96-.11-1.36-.32-.44-.23-.66-.56-.66-.97,0-.3.19-.41.36-.41h3.68c.57,0,.83-.31.83-.96,0-.42-.11-.83-.33-1.21-.22-.38-.55-.7-.99-.95-.44-.25-1.02-.38-1.7-.38-.97,0-1.78.3-2.41.88-.63.58-.95,1.4-.95,2.43s.32,1.77.97,2.33c.65.56,1.46.85,2.41.85.47,0,.96-.06,1.45-.19.48-.13.85-.29,1.09-.5.23-.2.35-.4.35-.61,0-.18-.06-.32-.18-.45-.12-.13-.26-.19-.43-.19ZM23.53,31.96c.32-.22.73-.33,1.23-.33.46,0,.85.1,1.16.31.33.22.49.48.49.76,0,.25-.15.32-.21.34-.07.02-.13.03-.17.03h-2.64c-.22,0-.37-.13-.37-.34,0-.27.17-.53.51-.76Z"/>
    <path class="cls-1" d="M34.57,35.04c-.12,0-.24.04-.36.12-.24.17-.52.31-.83.39-.31.09-.62.13-.94.13-.5,0-.96-.11-1.36-.32-.44-.23-.66-.56-.66-.97,0-.3.19-.41.36-.41h3.68c.57,0,.83-.31.83-.96,0-.42-.11-.83-.33-1.21-.22-.38-.55-.7-.99-.95-.44-.25-1.02-.38-1.7-.38-.96,0-1.78.3-2.41.88-.63.58-.95,1.4-.95,2.43s.33,1.77.97,2.33c.65.56,1.46.85,2.41.85.47,0,.96-.06,1.45-.19.48-.13.85-.29,1.09-.5.23-.2.35-.4.35-.61,0-.18-.06-.32-.18-.45-.12-.13-.26-.19-.43-.19ZM30.95,31.96c.32-.22.73-.33,1.23-.33.46,0,.85.1,1.16.31.33.22.49.48.49.76,0,.25-.15.32-.21.34-.07.02-.13.03-.17.03h-2.64c-.22,0-.36-.13-.36-.34,0-.27.17-.53.51-.76Z"/>
    <path class="cls-1" d="M42.61,27.57c-.15-.14-.34-.21-.59-.21-.23,0-.41.07-.56.2-.14.14-.21.3-.21.5v3.33l-.16-.14-.16-.14c-.46-.42-1-.64-1.58-.64-.92,0-1.66.29-2.2.86-.55.57-.82,1.37-.82,2.36s.29,1.8.85,2.39c.56.59,1.31.88,2.25.88.61,0,1.14-.19,1.56-.57l.11-.1.11-.1.04.14.04.14c.11.33.34.49.73.49.25,0,.45-.06.6-.2.15-.13.21-.28.21-.48v-8.24c0-.19-.07-.33-.22-.47ZM40.8,35c-.31.36-.72.54-1.22.54s-.93-.18-1.24-.54c-.3-.35-.45-.79-.45-1.31s.15-.97.46-1.3c.31-.33.72-.5,1.23-.5s.9.17,1.21.5c.31.33.46.77.46,1.3s-.15.96-.46,1.31Z"/>
    <g>
      <g>
        <path class="cls-1" d="M21.82,10.94c-1.35,0-2.66.27-3.9.79-1.19.5-2.26,1.23-3.18,2.14-.92.92-1.64,1.99-2.14,3.18-.52,1.23-.79,2.55-.79,3.9,0,.64.52,1.15,1.15,1.15s1.15-.52,1.15-1.15c0-4.25,3.45-7.7,7.7-7.7.64,0,1.15-.52,1.15-1.15s-.52-1.15-1.15-1.15ZM21.82,13.15c-4.3,0-7.8,3.5-7.8,7.8,0,.58-.48,1.06-1.06,1.06s-1.06-.48-1.06-1.06c0-1.34.26-2.64.78-3.86.5-1.18,1.21-2.24,2.12-3.15.91-.91,1.97-1.62,3.15-2.12,1.22-.52,2.52-.78,3.86-.78.58,0,1.06.48,1.06,1.06s-.47,1.06-1.06,1.06Z"/>
        <path class="cls-1" d="M22.88,12.09c0,.58-.47,1.06-1.06,1.06-4.3,0-7.8,3.5-7.8,7.8,0,.58-.48,1.06-1.06,1.06s-1.06-.48-1.06-1.06c0-1.34.26-2.64.78-3.86.5-1.18,1.21-2.24,2.12-3.15.91-.91,1.97-1.62,3.15-2.12,1.22-.52,2.52-.78,3.86-.78.58,0,1.06.48,1.06,1.06Z"/>
      </g>
      <g>
        <path class="cls-1" d="M21.82,15.35c-1.5,0-2.9.58-3.96,1.64-1.06,1.06-1.64,2.46-1.64,3.96,0,.64.52,1.15,1.15,1.15s1.15-.52,1.15-1.15c0-1.82,1.48-3.29,3.29-3.29.64,0,1.15-.52,1.15-1.15s-.52-1.15-1.15-1.15ZM21.82,17.56c-1.87,0-3.39,1.52-3.39,3.39,0,.58-.48,1.06-1.06,1.06s-1.06-.48-1.06-1.06c0-1.47.57-2.85,1.61-3.89s2.42-1.61,3.89-1.61c.58,0,1.06.47,1.06,1.06s-.47,1.06-1.06,1.06Z"/>
        <path class="cls-1" d="M22.88,16.5c0,.58-.47,1.06-1.06,1.06-1.87,0-3.39,1.52-3.39,3.39,0,.58-.48,1.06-1.06,1.06s-1.06-.48-1.06-1.06c0-1.47.57-2.85,1.61-3.89s2.42-1.61,3.89-1.61c.58,0,1.06.47,1.06,1.06Z"/>
      </g>
      <g>
        <path class="cls-1" d="M21.82,19.8c-.64,0-1.15.52-1.15,1.15s.52,1.15,1.15,1.15,1.15-.52,1.15-1.15-.52-1.15-1.15-1.15ZM21.82,22.01c-.58,0-1.06-.48-1.06-1.06s.48-1.06,1.06-1.06,1.06.48,1.06,1.06-.47,1.06-1.06,1.06Z"/>
        <path class="cls-1" d="M22.88,20.95c0,.58-.47,1.06-1.06,1.06s-1.06-.48-1.06-1.06.48-1.06,1.06-1.06,1.06.48,1.06,1.06Z"/>
      </g>
      <g>
        <path class="cls-1" d="M35.67,17.9c-.64,0-1.15.52-1.15,1.15v1.9c0,.64.52,1.15,1.15,1.15s1.15-.52,1.15-1.15v-1.9c0-.64-.52-1.15-1.15-1.15ZM36.72,20.95c0,.58-.48,1.06-1.06,1.06s-1.06-.48-1.06-1.06v-1.9c0-.58.48-1.06,1.06-1.06s1.06.47,1.06,1.06v1.9Z"/>
        <path class="cls-1" d="M36.72,19.05v1.9c0,.58-.48,1.06-1.06,1.06s-1.06-.48-1.06-1.06v-1.9c0-.58.48-1.06,1.06-1.06s1.06.47,1.06,1.06Z"/>
      </g>
      <g>
        <path class="cls-1" d="M26.81,10.94c-.64,0-1.15.52-1.15,1.15v8.86c0,.64.52,1.15,1.15,1.15s1.15-.52,1.15-1.15v-8.86c0-.64-.52-1.15-1.15-1.15ZM27.87,20.95c0,.58-.48,1.06-1.06,1.06s-1.06-.48-1.06-1.06v-8.86c0-.58.47-1.06,1.06-1.06s1.06.47,1.06,1.06v8.86Z"/>
        <path class="cls-1" d="M27.87,12.09v8.86c0,.58-.48,1.06-1.06,1.06s-1.06-.48-1.06-1.06v-8.86c0-.58.47-1.06,1.06-1.06s1.06.47,1.06,1.06Z"/>
      </g>
      <g>
        <path class="cls-1" d="M31.24,14.42c-.64,0-1.15.52-1.15,1.15v5.45c.04.61.54,1.08,1.15,1.08s1.11-.48,1.15-1.08v-.04s0-5.41,0-5.41c0-.64-.52-1.15-1.15-1.15ZM32.3,20.98v.04c-.04.56-.5,1-1.06,1s-1.02-.44-1.06-1v-.02s0-5.42,0-5.42c0-.58.47-1.06,1.06-1.06s1.06.48,1.06,1.06v5.4Z"/>
        <path class="cls-1" d="M32.3,15.57v5.44c-.04.56-.5,1-1.06,1s-1.02-.44-1.06-1v-.02s0-5.42,0-5.42c0-.58.47-1.06,1.06-1.06s1.06.48,1.06,1.06Z"/>
      </g>
    </g>
  </g>
</svg>