<?xml version="1.0" encoding="UTF-8"?>
<svg id="design" xmlns="http://www.w3.org/2000/svg" viewBox="0 0 512 512">
  <path d="M219.7,173.38c-19.85,0-39.12,3.89-57.26,11.57-17.52,7.41-33.25,18.01-46.75,31.52-13.5,13.5-24.11,29.23-31.52,46.75-7.68,18.15-11.57,37.41-11.57,57.26,0,10.02,8.13,18.15,18.15,18.15s18.15-8.13,18.15-18.15c0-61.09,49.7-110.79,110.79-110.79,10.02,0,18.15-8.13,18.15-18.15s-8.13-18.15-18.15-18.15Z"/>
  <path d="M219.7,237.61c-22.13,0-42.94,8.62-58.59,24.27-15.65,15.65-24.27,36.46-24.27,58.59,0,10.02,8.13,18.15,18.15,18.15s18.15-8.13,18.15-18.15c0-25.67,20.89-46.56,46.56-46.56,10.02,0,18.15-8.13,18.15-18.15s-8.13-18.15-18.15-18.15Z"/>
  <circle cx="219.7" cy="320.47" r="18.15"/>
  <path d="M403.09,292.83v27.64c0,10.02,8.13,18.15,18.15,18.15s18.15-8.13,18.15-18.15v-27.64c0-10.02-8.13-18.15-18.15-18.15s-18.15,8.13-18.15,18.15Z"/>
  <path d="M274.15,191.53v128.94c0,10.02,8.13,18.15,18.15,18.15s18.15-8.13,18.15-18.15v-128.94c0-10.02-8.13-18.15-18.15-18.15s-18.15,8.13-18.15,18.15Z"/>
  <path d="M338.62,242.18v79.38h.04c.56,9.52,8.46,17.06,18.12,17.06s17.55-7.54,18.12-17.06h.04v-79.38c0-10.02-8.13-18.15-18.15-18.15s-18.15,8.13-18.15,18.15Z"/>
</svg>