<?xml version="1.0" encoding="UTF-8"?>
<svg xmlns="http://www.w3.org/2000/svg" viewBox="0 0 192 192">
  <defs>
    <style>
      .cls-1 {
        fill: #fff;
      }
    </style>
  </defs>
  <g id="background">
    <rect y="0" width="192" height="192"/>
  </g>
  <g id="design">
    <path class="cls-1" d="M88.25,71.82c0,3.24-2.63,5.87-5.87,5.87-23.43,0-42.48,19.06-42.48,42.48,0,3.24-2.63,5.87-5.87,5.87s-5.87-2.63-5.87-5.87c0-7.32,1.43-14.42,4.26-21.11,2.73-6.46,6.64-12.25,11.62-17.23,4.98-4.98,10.78-8.89,17.23-11.62,6.69-2.83,13.79-4.26,21.11-4.26,3.24,0,5.87,2.63,5.87,5.87Z"/>
    <path class="cls-1" d="M88.25,95.91c0,3.24-2.63,5.87-5.87,5.87-10.14,0-18.4,8.25-18.4,18.4,0,3.24-2.63,5.87-5.87,5.87s-5.87-2.63-5.87-5.87c0-8.05,3.14-15.62,8.83-21.31,5.69-5.69,13.26-8.82,21.31-8.82,3.24,0,5.87,2.63,5.87,5.87Z"/>
    <circle class="cls-1" cx="82.39" cy="120.18" r="5.87"/>
    <path class="cls-1" d="M163.84,109.81v10.36c0,3.24-2.63,5.87-5.87,5.87s-5.87-2.63-5.87-5.87v-10.36c0-3.24,2.63-5.87,5.87-5.87s5.87,2.63,5.87,5.87Z"/>
    <path class="cls-1" d="M115.48,71.82v48.35c0,3.24-2.63,5.87-5.87,5.87s-5.87-2.63-5.87-5.87v-48.35c0-3.24,2.63-5.87,5.87-5.87s5.87,2.63,5.87,5.87Z"/>
    <path class="cls-1" d="M139.66,90.82v29.71c-.2,3.09-2.77,5.52-5.87,5.52s-5.67-2.42-5.86-5.52v-.16s-.01-29.55-.01-29.55c0-3.24,2.63-5.87,5.87-5.87s5.87,2.63,5.87,5.87Z"/>
  </g>
</svg>