<?xml version="1.0" encoding="UTF-8"?>
<svg id="design" xmlns="http://www.w3.org/2000/svg" viewBox="0 0 192 192">
  <g>
    <path d="M38.47,148.61c-3.49,0-6.63-.84-9.44-2.53s-5.02-3.97-6.65-6.87-2.44-6.09-2.44-9.57.81-6.81,2.44-9.62,3.83-5.02,6.6-6.65,5.94-2.44,9.48-2.44,6.69.81,9.44,2.44c2.75,1.63,4.9,3.84,6.47,6.65,1.57,2.81,2.35,6.01,2.35,9.62s-.8,6.75-2.39,9.62c-1.6,2.87-3.77,5.14-6.52,6.82s-5.87,2.53-9.35,2.53ZM38.47,141.52c3.01,0,5.48-1.12,7.4-3.37,1.92-2.25,2.88-5.08,2.88-8.51s-.96-6.23-2.88-8.42c-1.92-2.19-4.39-3.28-7.4-3.28s-5.6,1.09-7.58,3.28c-1.98,2.19-2.97,4.99-2.97,8.42s.99,6.27,2.97,8.51c1.98,2.25,4.5,3.37,7.58,3.37Z"/>
    <path d="M65.15,148.61c-1.06,0-2-.37-2.79-1.11-.8-.74-1.2-1.61-1.2-2.62v-27.57c0-1.71.5-3.06,1.51-4.03s2.33-1.46,3.99-1.46h13.83c1.18,0,2.1.33,2.75.98s.98,1.54.98,2.66c0,1.01-.36,1.86-1.06,2.57-.71.71-1.6,1.06-2.66,1.06h-9.57c-1.18,0-1.77.59-1.77,1.77v3.99c0,1.18.59,1.77,1.77,1.77h8.33c1.12,0,2.02.33,2.7.98.68.65,1.02,1.51,1.02,2.57,0,1.01-.37,1.85-1.11,2.53-.74.68-1.61,1.02-2.62,1.02h-8.33c-1.18,0-1.77.59-1.77,1.77v9.4c0,1.01-.4,1.88-1.2,2.62s-1.73,1.11-2.79,1.11Z"/>
    <path d="M99.46,148.61c-4.02,0-7.4-1.2-10.15-3.59-2.75-2.39-4.12-5.69-4.12-9.88s1.34-7.8,4.03-10.28,6.07-3.72,10.15-3.72c2.89,0,5.29.53,7.18,1.6,1.89,1.06,3.31,2.42,4.25,4.08s1.42,3.4,1.42,5.23c0,3.07-1.36,4.61-4.08,4.61h-14.71c-.47,0-.71.3-.71.89,0,1.36.75,2.44,2.26,3.24,1.51.8,3.21,1.2,5.1,1.2,1.18,0,2.36-.16,3.55-.49,1.18-.32,2.22-.81,3.1-1.46.59-.41,1.21-.62,1.86-.62.89,0,1.64.33,2.26.98s.93,1.42.93,2.3c0,1.06-.56,2.07-1.68,3.01-1.06.89-2.62,1.6-4.65,2.13-2.04.53-4.03.8-5.98.8ZM104.07,131.51c.12,0,.28-.03.49-.09.21-.06.31-.27.31-.62,0-.89-.55-1.7-1.64-2.44-1.09-.74-2.5-1.11-4.21-1.11-1.83,0-3.33.4-4.48,1.2-1.15.8-1.73,1.61-1.73,2.44,0,.41.24.62.71.62h10.55Z"/>
    <path d="M129.15,148.61c-4.02,0-7.4-1.2-10.15-3.59-2.75-2.39-4.12-5.69-4.12-9.88s1.34-7.8,4.03-10.28,6.07-3.72,10.15-3.72c2.89,0,5.29.53,7.18,1.6,1.89,1.06,3.31,2.42,4.25,4.08s1.42,3.4,1.42,5.23c0,3.07-1.36,4.61-4.08,4.61h-14.71c-.47,0-.71.3-.71.89,0,1.36.75,2.44,2.26,3.24,1.51.8,3.21,1.2,5.1,1.2,1.18,0,2.36-.16,3.55-.49,1.18-.32,2.22-.81,3.1-1.46.59-.41,1.21-.62,1.86-.62.89,0,1.64.33,2.26.98s.93,1.42.93,2.3c0,1.06-.56,2.07-1.68,3.01-1.06.89-2.62,1.6-4.65,2.13-2.04.53-4.03.8-5.98.8ZM133.76,131.51c.12,0,.28-.03.49-.09.21-.06.31-.27.31-.62,0-.89-.55-1.7-1.64-2.44-1.09-.74-2.5-1.11-4.21-1.11-1.83,0-3.33.4-4.48,1.2-1.15.8-1.73,1.61-1.73,2.44,0,.41.24.62.71.62h10.55Z"/>
    <path d="M157.69,148.61c-3.96,0-7.14-1.26-9.53-3.77-2.39-2.51-3.59-5.86-3.59-10.06s1.17-7.52,3.5-9.97,5.45-3.68,9.35-3.68c2.54,0,4.82.92,6.83,2.75v-11.61c0-1,.35-1.85,1.06-2.53s1.63-1.02,2.75-1.02c1.18,0,2.14.34,2.88,1.02s1.11,1.49,1.11,2.44v32.98c0,1.01-.37,1.83-1.11,2.48s-1.7.97-2.88.97c-1.89,0-3.1-.83-3.63-2.48-1.83,1.65-4.08,2.48-6.74,2.48ZM158.32,141.43c1.77,0,3.2-.64,4.3-1.91,1.09-1.27,1.64-2.85,1.64-4.74s-.55-3.51-1.64-4.7c-1.09-1.18-2.53-1.77-4.3-1.77s-3.29.59-4.39,1.77c-1.09,1.18-1.64,2.75-1.64,4.7s.55,3.47,1.64,4.74,2.56,1.91,4.39,1.91Z"/>
  </g>
  <path d="M87.3,43.39c-5.45,0-10.75,1.07-15.73,3.18-4.81,2.04-9.13,4.95-12.84,8.66-3.71,3.71-6.62,8.03-8.66,12.84-2.11,4.98-3.18,10.28-3.18,15.73,0,2.75,2.23,4.99,4.99,4.99s4.99-2.23,4.99-4.99c0-16.78,13.65-30.44,30.44-30.44,2.75,0,4.99-2.23,4.99-4.99s-2.23-4.99-4.99-4.99Z"/>
  <path d="M87.3,61.03c-6.08,0-11.8,2.37-16.1,6.67-4.3,4.3-6.67,10.02-6.67,16.1,0,2.75,2.23,4.99,4.99,4.99s4.99-2.23,4.99-4.99c0-7.05,5.74-12.79,12.79-12.79,2.75,0,4.99-2.23,4.99-4.99s-2.23-4.99-4.99-4.99Z"/>
  <circle cx="87.3" cy="83.79" r="4.99"/>
  <path d="M137.68,76.2v7.59c0,2.75,2.23,4.99,4.99,4.99s4.99-2.23,4.99-4.99v-7.59c0-2.75-2.23-4.99-4.99-4.99s-4.99,2.23-4.99,4.99Z"/>
  <path d="M102.25,48.37v35.42c0,2.75,2.23,4.99,4.99,4.99s4.99-2.23,4.99-4.99v-35.42c0-2.75-2.23-4.99-4.99-4.99s-4.99,2.23-4.99,4.99Z"/>
  <path d="M119.96,62.29v21.81h0c.15,2.61,2.32,4.69,4.98,4.69s4.82-2.07,4.98-4.69h0v-21.81c0-2.75-2.23-4.99-4.99-4.99s-4.99,2.23-4.99,4.99Z"/>
</svg>