<?xml version="1.0" encoding="UTF-8"?>
<svg id="design" xmlns="http://www.w3.org/2000/svg" viewBox="0 0 917.67 227.44">
  <g>
    <path d="M458.35,174.48c-10.6,0-20.16-2.56-28.7-7.68-8.54-5.12-15.27-12.08-20.21-20.88-4.94-8.81-7.41-18.51-7.41-29.11s2.47-20.7,7.41-29.24c4.94-8.54,11.63-15.27,20.08-20.21,8.44-4.94,18.06-7.41,28.84-7.41s20.35,2.47,28.7,7.41c8.35,4.94,14.91,11.68,19.68,20.21,4.76,8.54,7.14,18.28,7.14,29.24s-2.43,20.53-7.28,29.24c-4.85,8.71-11.46,15.63-19.81,20.75-8.35,5.12-17.83,7.68-28.43,7.68ZM458.35,152.92c9.16,0,16.66-3.41,22.51-10.24,5.84-6.83,8.76-15.46,8.76-25.88s-2.92-18.95-8.76-25.6c-5.84-6.65-13.34-9.98-22.51-9.98s-17.02,3.33-23.04,9.98c-6.02,6.65-9.03,15.18-9.03,25.6s3.01,19.05,9.03,25.88c6.02,6.83,13.7,10.24,23.04,10.24Z"/>
    <path d="M539.47,174.48c-3.24,0-6.07-1.12-8.49-3.37-2.42-2.24-3.64-4.89-3.64-7.95v-83.82c0-5.21,1.53-9.3,4.58-12.26,3.06-2.96,7.1-4.45,12.13-4.45h42.04c3.59,0,6.38.99,8.35,2.97,1.98,1.98,2.97,4.67,2.97,8.08,0,3.06-1.08,5.67-3.24,7.82-2.15,2.15-4.85,3.23-8.09,3.23h-29.1c-3.59,0-5.39,1.8-5.39,5.39v12.13c0,3.59,1.8,5.39,5.39,5.39h25.33c3.41,0,6.15.99,8.22,2.97,2.06,1.98,3.1,4.58,3.1,7.82,0,3.06-1.12,5.61-3.37,7.68-2.25,2.07-4.89,3.1-7.95,3.1h-25.33c-3.59,0-5.39,1.8-5.39,5.39v28.57c0,3.06-1.22,5.71-3.64,7.95-2.42,2.24-5.25,3.37-8.49,3.37Z"/>
    <path d="M643.77,174.48c-12.22,0-22.51-3.64-30.86-10.91-8.35-7.27-12.53-17.29-12.53-30.05s4.09-23.71,12.26-31.26c8.17-7.55,18.46-11.32,30.86-11.32,8.8,0,16.08,1.62,21.83,4.85,5.75,3.24,10.06,7.37,12.93,12.4,2.87,5.03,4.31,10.33,4.31,15.9,0,9.34-4.13,14.02-12.4,14.02h-44.74c-1.44,0-2.16.9-2.16,2.69,0,4.13,2.29,7.42,6.87,9.84,4.58,2.42,9.75,3.64,15.5,3.64,3.59,0,7.18-.49,10.78-1.48,3.59-.98,6.74-2.47,9.43-4.45,1.8-1.25,3.68-1.89,5.66-1.89,2.69,0,4.99.99,6.87,2.97,1.89,1.98,2.83,4.31,2.83,7,0,3.24-1.71,6.29-5.12,9.16-3.24,2.7-7.95,4.85-14.15,6.47-6.2,1.62-12.26,2.42-18.19,2.42ZM657.78,122.46c.36,0,.85-.09,1.49-.27.63-.18.94-.81.94-1.89,0-2.69-1.66-5.16-4.99-7.41-3.33-2.24-7.59-3.37-12.8-3.37-5.57,0-10.11,1.21-13.61,3.64-3.51,2.42-5.26,4.89-5.26,7.41,0,1.26.72,1.89,2.16,1.89h32.07Z"/>
    <path d="M734.05,174.48c-12.22,0-22.51-3.64-30.86-10.91-8.35-7.27-12.53-17.29-12.53-30.05s4.09-23.71,12.26-31.26c8.17-7.55,18.46-11.32,30.86-11.32,8.8,0,16.08,1.62,21.83,4.85,5.75,3.24,10.06,7.37,12.93,12.4,2.87,5.03,4.31,10.33,4.31,15.9,0,9.34-4.13,14.02-12.4,14.02h-44.74c-1.44,0-2.16.9-2.16,2.69,0,4.13,2.29,7.42,6.87,9.84,4.58,2.42,9.75,3.64,15.5,3.64,3.59,0,7.18-.49,10.78-1.48,3.59-.98,6.74-2.47,9.43-4.45,1.8-1.25,3.68-1.89,5.66-1.89,2.69,0,4.99.99,6.87,2.97,1.89,1.98,2.83,4.31,2.83,7,0,3.24-1.71,6.29-5.12,9.16-3.24,2.7-7.95,4.85-14.15,6.47-6.2,1.62-12.26,2.42-18.19,2.42ZM748.06,122.46c.36,0,.85-.09,1.49-.27.63-.18.94-.81.94-1.89,0-2.69-1.66-5.16-4.99-7.41-3.33-2.24-7.59-3.37-12.8-3.37-5.57,0-10.11,1.21-13.61,3.64-3.51,2.42-5.26,4.89-5.26,7.41,0,1.26.72,1.89,2.16,1.89h32.07Z"/>
    <path d="M820.82,174.48c-12.04,0-21.7-3.82-28.97-11.45-7.28-7.63-10.91-17.83-10.91-30.59s3.55-22.86,10.64-30.32c7.1-7.46,16.57-11.19,28.43-11.19,7.73,0,14.64,2.79,20.75,8.35v-35.3c0-3.05,1.08-5.61,3.23-7.68,2.15-2.07,4.94-3.1,8.35-3.1,3.59,0,6.51,1.04,8.76,3.1,2.25,2.07,3.37,4.54,3.37,7.41v100.26c0,3.06-1.12,5.57-3.37,7.55-2.25,1.97-5.16,2.96-8.76,2.96-5.75,0-9.43-2.52-11.05-7.55-5.57,5.03-12.4,7.55-20.48,7.55ZM822.71,152.65c5.39,0,9.74-1.93,13.07-5.8,3.33-3.86,4.99-8.67,4.99-14.42s-1.66-10.69-4.99-14.28c-3.33-3.59-7.68-5.39-13.07-5.39s-10.02,1.8-13.34,5.39c-3.33,3.59-4.99,8.35-4.99,14.28s1.66,10.56,4.99,14.42c3.33,3.86,7.77,5.8,13.34,5.8Z"/>
  </g>
  <g>
    <path d="M160.94,53.2c-14.54,0-28.65,2.85-41.95,8.47-12.83,5.43-24.36,13.2-34.25,23.09-9.89,9.89-17.66,21.41-23.09,34.25-5.62,13.29-8.47,27.41-8.47,41.95,0,7.34,5.95,13.3,13.3,13.3s13.3-5.95,13.3-13.3c0-44.75,36.41-81.16,81.16-81.16,7.34,0,13.3-5.95,13.3-13.3s-5.95-13.3-13.3-13.3Z"/>
    <path d="M160.94,100.25c-16.21,0-31.46,6.31-42.92,17.78-11.47,11.47-17.78,26.71-17.78,42.92,0,7.34,5.95,13.3,13.3,13.3s13.3-5.95,13.3-13.3c0-18.81,15.3-34.11,34.11-34.11,7.34,0,13.3-5.95,13.3-13.3s-5.95-13.3-13.3-13.3Z"/>
    <circle cx="160.94" cy="160.95" r="13.3"/>
    <path d="M295.29,140.71v20.25c0,7.34,5.95,13.3,13.3,13.3s13.3-5.95,13.3-13.3v-20.25c0-7.34-5.95-13.3-13.3-13.3s-13.3,5.95-13.3,13.3Z"/>
    <path d="M200.83,66.5v94.46c0,7.34,5.95,13.3,13.3,13.3s13.3-5.95,13.3-13.3v-94.46c0-7.34-5.95-13.3-13.3-13.3s-13.3,5.95-13.3,13.3Z"/>
    <path d="M248.06,103.6v58.15h.03c.41,6.97,6.2,12.5,13.27,12.5s12.86-5.53,13.27-12.5h.03v-58.15c0-7.34-5.95-13.3-13.3-13.3s-13.3,5.95-13.3,13.3Z"/>
  </g>
</svg>