<?xml version="1.0" encoding="UTF-8"?>
<svg id="design" xmlns="http://www.w3.org/2000/svg" viewBox="0 0 48 48">
  <g>
    <path d="M9.62,37.15c-.87,0-1.66-.21-2.36-.63s-1.26-.99-1.66-1.72-.61-1.52-.61-2.39.2-1.7.61-2.4.96-1.26,1.65-1.66,1.48-.61,2.37-.61,1.67.2,2.36.61,1.23.96,1.62,1.66c.39.7.59,1.5.59,2.4s-.2,1.69-.6,2.4c-.4.72-.94,1.29-1.63,1.71s-1.47.63-2.34.63ZM9.62,35.38c.75,0,1.37-.28,1.85-.84.48-.56.72-1.27.72-2.13s-.24-1.56-.72-2.1c-.48-.55-1.1-.82-1.85-.82s-1.4.27-1.89.82-.74,1.25-.74,2.1.25,1.57.74,2.13,1.13.84,1.89.84Z"/>
    <path d="M16.29,37.15c-.27,0-.5-.09-.7-.28s-.3-.4-.3-.65v-6.89c0-.43.13-.76.38-1.01s.58-.37,1-.37h3.46c.3,0,.52.08.69.24s.24.38.24.66c0,.25-.09.47-.27.64s-.4.27-.66.27h-2.39c-.3,0-.44.15-.44.44v1c0,.3.15.44.44.44h2.08c.28,0,.51.08.68.24.17.16.25.38.25.64,0,.25-.09.46-.28.63-.18.17-.4.25-.65.25h-2.08c-.3,0-.44.15-.44.44v2.35c0,.25-.1.47-.3.65s-.43.28-.7.28Z"/>
    <path d="M24.86,37.15c-1,0-1.85-.3-2.54-.9-.69-.6-1.03-1.42-1.03-2.47s.34-1.95,1.01-2.57,1.52-.93,2.54-.93c.72,0,1.32.13,1.79.4.47.27.83.61,1.06,1.02s.35.85.35,1.31c0,.77-.34,1.15-1.02,1.15h-3.68c-.12,0-.18.07-.18.22,0,.34.19.61.57.81.38.2.8.3,1.27.3.3,0,.59-.04.89-.12.3-.08.55-.2.78-.37.15-.1.3-.16.47-.16.22,0,.41.08.57.24s.23.35.23.58c0,.27-.14.52-.42.75-.27.22-.65.4-1.16.53-.51.13-1.01.2-1.5.2ZM26.02,32.88s.07,0,.12-.02c.05-.01.08-.07.08-.16,0-.22-.14-.42-.41-.61-.27-.18-.62-.28-1.05-.28-.46,0-.83.1-1.12.3-.29.2-.43.4-.43.61,0,.1.06.16.18.16h2.64Z"/>
    <path d="M32.29,37.15c-1,0-1.85-.3-2.54-.9-.69-.6-1.03-1.42-1.03-2.47s.34-1.95,1.01-2.57,1.52-.93,2.54-.93c.72,0,1.32.13,1.79.4.47.27.83.61,1.06,1.02s.35.85.35,1.31c0,.77-.34,1.15-1.02,1.15h-3.68c-.12,0-.18.07-.18.22,0,.34.19.61.57.81.38.2.8.3,1.27.3.3,0,.59-.04.89-.12.3-.08.55-.2.78-.37.15-.1.3-.16.47-.16.22,0,.41.08.57.24s.23.35.23.58c0,.27-.14.52-.42.75-.27.22-.65.4-1.16.53-.51.13-1.01.2-1.5.2ZM33.44,32.88s.07,0,.12-.02c.05-.01.08-.07.08-.16,0-.22-.14-.42-.41-.61-.27-.18-.62-.28-1.05-.28-.46,0-.83.1-1.12.3-.29.2-.43.4-.43.61,0,.1.06.16.18.16h2.64Z"/>
    <path d="M39.42,37.15c-.99,0-1.78-.31-2.38-.94-.6-.63-.9-1.47-.9-2.52s.29-1.88.88-2.49,1.36-.92,2.34-.92c.64,0,1.2.23,1.71.69v-2.9c0-.25.09-.46.27-.63s.41-.26.69-.26c.3,0,.54.09.72.26s.28.37.28.61v8.24c0,.25-.09.46-.28.62s-.42.24-.72.24c-.47,0-.78-.21-.91-.62-.46.41-1.02.62-1.68.62ZM39.58,35.36c.44,0,.8-.16,1.07-.48s.41-.71.41-1.19-.14-.88-.41-1.17-.63-.44-1.07-.44-.82.15-1.1.44-.41.69-.41,1.17.14.87.41,1.19.64.48,1.1.48Z"/>
  </g>
  <path d="M21.82,10.85c-1.36,0-2.69.27-3.93.79-1.2.51-2.28,1.24-3.21,2.16-.93.93-1.66,2.01-2.16,3.21-.53,1.25-.79,2.57-.79,3.93,0,.69.56,1.25,1.25,1.25s1.25-.56,1.25-1.25c0-4.2,3.41-7.61,7.61-7.61.69,0,1.25-.56,1.25-1.25s-.56-1.25-1.25-1.25Z"/>
  <path d="M21.82,15.26c-1.52,0-2.95.59-4.02,1.67-1.07,1.07-1.67,2.5-1.67,4.02,0,.69.56,1.25,1.25,1.25s1.25-.56,1.25-1.25c0-1.76,1.43-3.2,3.2-3.2.69,0,1.25-.56,1.25-1.25s-.56-1.25-1.25-1.25Z"/>
  <circle cx="21.82" cy="20.95" r="1.25"/>
  <path d="M34.42,19.05v1.9c0,.69.56,1.25,1.25,1.25s1.25-.56,1.25-1.25v-1.9c0-.69-.56-1.25-1.25-1.25s-1.25.56-1.25,1.25Z"/>
  <path d="M25.56,12.09v8.86c0,.69.56,1.25,1.25,1.25s1.25-.56,1.25-1.25v-8.86c0-.69-.56-1.25-1.25-1.25s-1.25.56-1.25,1.25Z"/>
  <path d="M29.99,15.57v5.45h0c.04.65.58,1.17,1.24,1.17s1.21-.52,1.24-1.17h0v-5.45c0-.69-.56-1.25-1.25-1.25s-1.25.56-1.25,1.25Z"/>
</svg>