<?xml version="1.0" encoding="UTF-8"?>
<svg xmlns="http://www.w3.org/2000/svg" viewBox="0 0 512 512">
  <defs>
    <style>
      .cls-1 {
        fill: #fff;
      }
    </style>
  </defs>
  <g id="background">
    <rect y="0" width="512" height="512"/>
  </g>
  <g id="design">
    <path class="cls-1" d="M235.35,191.53c0,8.63-7.02,15.65-15.65,15.65-62.47,0-113.29,50.82-113.29,113.29,0,8.63-7.02,15.65-15.65,15.65s-15.65-7.02-15.65-15.65c0-19.51,3.82-38.45,11.37-56.29,7.28-17.22,17.71-32.68,30.98-45.95,13.27-13.28,28.74-23.7,45.96-30.98,17.83-7.55,36.77-11.37,56.28-11.37,8.63,0,15.65,7.02,15.65,15.65Z"/>
    <path class="cls-1" d="M235.35,255.76c0,8.63-7.02,15.65-15.65,15.65-27.05,0-49.06,22.01-49.06,49.06,0,8.63-7.02,15.65-15.65,15.65s-15.65-7.02-15.65-15.65c0-21.47,8.36-41.65,23.54-56.83,15.18-15.17,35.36-23.53,56.82-23.53,8.63,0,15.65,7.02,15.65,15.65Z"/>
    <path class="cls-1" d="M235.35,320.47c0,8.63-7.02,15.65-15.65,15.65s-15.65-7.02-15.65-15.65,7.02-15.65,15.65-15.65,15.65,7.02,15.65,15.65Z"/>
    <path class="cls-1" d="M436.9,292.83v27.64c0,8.63-7.02,15.65-15.65,15.65s-15.65-7.02-15.65-15.65v-27.64c0-8.63,7.02-15.65,15.65-15.65s15.65,7.02,15.65,15.65Z"/>
    <path class="cls-1" d="M307.96,191.53v128.94c0,8.63-7.02,15.65-15.65,15.65s-15.65-7.02-15.65-15.65v-128.94c0-8.63,7.02-15.65,15.65-15.65s15.65,7.02,15.65,15.65Z"/>
    <path class="cls-1" d="M372.43,242.18v78.71l-.03.52c-.49,8.25-7.35,14.71-15.62,14.71s-15.13-6.46-15.62-14.71l-.03-.42v-78.81c0-8.63,7.02-15.65,15.65-15.65s15.65,7.02,15.65,15.65Z"/>
  </g>
</svg>