<?xml version="1.0" encoding="UTF-8"?>
<svg id="design" xmlns="http://www.w3.org/2000/svg" viewBox="0 0 192 192">
  <path d="M82.39,65.02c-7.44,0-14.67,1.46-21.47,4.34-6.57,2.78-12.47,6.75-17.53,11.82-5.06,5.06-9.04,10.96-11.82,17.53-2.88,6.8-4.34,14.03-4.34,21.47,0,3.76,3.05,6.81,6.81,6.81s6.81-3.05,6.81-6.81c0-22.91,18.64-41.55,41.55-41.55,3.76,0,6.81-3.05,6.81-6.81s-3.05-6.81-6.81-6.81Z"/>
  <path d="M82.39,89.1c-8.3,0-16.1,3.23-21.97,9.1-5.87,5.87-9.1,13.67-9.1,21.97,0,3.76,3.05,6.81,6.81,6.81s6.81-3.05,6.81-6.81c0-9.63,7.83-17.46,17.46-17.46,3.76,0,6.81-3.05,6.81-6.81s-3.05-6.81-6.81-6.81Z"/>
  <circle cx="82.39" cy="120.18" r="6.81"/>
  <path d="M151.16,109.81v10.36c0,3.76,3.05,6.81,6.81,6.81s6.81-3.05,6.81-6.81v-10.36c0-3.76-3.05-6.81-6.81-6.81s-6.81,3.05-6.81,6.81Z"/>
  <path d="M102.81,71.82v48.35c0,3.76,3.05,6.81,6.81,6.81s6.81-3.05,6.81-6.81v-48.35c0-3.76-3.05-6.81-6.81-6.81s-6.81,3.05-6.81,6.81Z"/>
  <path d="M126.98,90.82v29.77h.01c.21,3.57,3.17,6.4,6.79,6.4s6.58-2.83,6.79-6.4h.01v-29.77c0-3.76-3.05-6.81-6.81-6.81s-6.81,3.05-6.81,6.81Z"/>
</svg>