<?xml version="1.0" encoding="UTF-8"?>
<svg xmlns="http://www.w3.org/2000/svg" viewBox="0 0 48 48">
  <defs>
    <style>
      .cls-1 {
        fill: #fff;
      }
    </style>
  </defs>
  <g id="background">
    <rect y="0" width="48" height="48"/>
  </g>
  <g id="design">
    <path class="cls-1" d="M22.06,17.96c0,.81-.66,1.47-1.47,1.47-5.86,0-10.62,4.76-10.62,10.62,0,.81-.66,1.47-1.47,1.47s-1.47-.66-1.47-1.47c0-1.83.36-3.6,1.07-5.28.68-1.61,1.66-3.06,2.9-4.31,1.24-1.24,2.69-2.22,4.31-2.9,1.67-.71,3.45-1.07,5.28-1.07.81,0,1.47.66,1.47,1.47Z"/>
    <path class="cls-1" d="M22.06,23.98c0,.81-.66,1.47-1.47,1.47-2.54,0-4.6,2.06-4.6,4.6,0,.81-.66,1.47-1.47,1.47s-1.47-.66-1.47-1.47c0-2.01.78-3.9,2.21-5.33,1.42-1.42,3.31-2.21,5.33-2.21.81,0,1.47.66,1.47,1.47Z"/>
    <circle class="cls-1" cx="20.6" cy="30.04" r="1.47"/>
    <path class="cls-1" d="M40.96,27.45v2.59c0,.81-.66,1.47-1.47,1.47s-1.47-.66-1.47-1.47v-2.59c0-.81.66-1.47,1.47-1.47s1.47.66,1.47,1.47Z"/>
    <path class="cls-1" d="M28.87,17.96v12.09c0,.81-.66,1.47-1.47,1.47s-1.47-.66-1.47-1.47v-12.09c0-.81.66-1.47,1.47-1.47s1.47.66,1.47,1.47Z"/>
    <path class="cls-1" d="M34.91,22.7v7.43c-.05.77-.69,1.38-1.47,1.38s-1.42-.61-1.46-1.38v-.04s0-7.39,0-7.39c0-.81.66-1.47,1.47-1.47s1.47.66,1.47,1.47Z"/>
  </g>
</svg>