<?xml version="1.0" encoding="UTF-8"?>
<svg xmlns="http://www.w3.org/2000/svg" viewBox="0 0 917.67 227.44">
  <defs>
    <style>
      .cls-1 {
        fill: #fff;
      }
    </style>
  </defs>
  <g id="background">
    <rect width="918.38" height="227.44"/>
  </g>
  <g id="design">
    <g>
      <path class="cls-1" d="M497.37,88.01c-4.65-8.34-11.15-15.01-19.34-19.86-8.16-4.83-17.66-7.27-28.23-7.27s-20.14,2.46-28.39,7.28c-8.27,4.83-14.91,11.52-19.75,19.87-4.84,8.36-7.28,18.05-7.28,28.82s2.46,20.07,7.3,28.7c4.85,8.63,11.54,15.55,19.89,20.55,8.36,5,17.86,7.54,28.23,7.54s19.78-2.54,27.93-7.53c8.16-4.99,14.73-11.87,19.5-20.42,4.75-8.53,7.15-18.24,7.15-28.84s-2.36-20.49-7.01-28.84ZM474.65,144.9c-6.43,7.51-14.79,11.32-24.85,11.32s-18.79-3.8-25.38-11.29c-6.54-7.4-9.84-16.85-9.84-28.07s3.32-20.59,9.87-27.82c6.61-7.3,15.14-11,25.36-11s18.4,3.71,24.83,11.02c6.35,7.24,9.56,16.59,9.56,27.8s-3.21,20.63-9.54,28.05Z"/>
      <path class="cls-1" d="M543.08,89.48v12.44c0,5,2.86,7.87,7.86,7.87h25.99c2.9,0,5.12.78,6.8,2.38,1.65,1.59,2.46,3.67,2.46,6.34,0,2.5-.85,4.45-2.7,6.15-1.86,1.73-4.01,2.56-6.56,2.56h-25.99c-4.92,0-7.86,2.95-7.86,7.87v29.3c0,2.51-.95,4.55-2.99,6.44-2.06,1.89-4.38,2.82-7.11,2.82s-5.06-.92-7.12-2.82c-2.01-1.86-2.98-3.97-2.98-6.44v-85.95c0-4.65,1.34-8.32,4-10.9,2.67-2.6,6.3-3.9,10.8-3.9h43.1c3.06,0,5.33.77,6.91,2.36,1.59,1.58,2.36,3.75,2.36,6.63,0,2.55-.83,4.57-2.63,6.37s-3.94,2.63-6.64,2.63h-29.85c-4.99,0-7.86,2.86-7.86,7.86Z"/>
      <path class="cls-1" d="M668.39,149.59c-1.54,0-3,.49-4.47,1.51-2.96,2.17-6.47,3.83-10.39,4.9-3.86,1.08-7.79,1.61-11.67,1.61-6.24,0-11.96-1.34-16.99-4.01-5.49-2.9-8.29-6.99-8.29-12.16,0-3.75,2.35-5.1,4.55-5.1h45.87c7.07,0,10.37-3.82,10.37-12.03,0-5.27-1.38-10.36-4.12-15.14-2.72-4.76-6.89-8.74-12.38-11.84-5.52-3.1-12.66-4.68-21.23-4.68-12.04,0-22.17,3.69-30.06,10.99-7.84,7.25-11.82,17.45-11.82,30.34s4.05,22.1,12.04,29.06c8.08,7.04,18.21,10.6,30.1,10.6,5.87,0,11.95-.81,18.07-2.41,6-1.57,10.57-3.65,13.6-6.17,2.92-2.46,4.41-5,4.41-7.59,0-2.19-.71-3.96-2.26-5.58-1.51-1.58-3.21-2.31-5.35-2.31ZM623.26,111.19c3.97-2.75,9.12-4.14,15.29-4.14,5.79,0,10.64,1.3,14.44,3.85,4.07,2.76,6.14,5.97,6.14,9.54,0,3.07-1.86,3.95-2.65,4.19-.87.25-1.58.36-2.17.36h-32.87c-2.77,0-4.56-1.67-4.56-4.27,0-3.38,2.15-6.58,6.39-9.53Z"/>
      <path class="cls-1" d="M760.96,149.59c-1.54,0-3,.49-4.47,1.51-2.96,2.17-6.47,3.83-10.39,4.9-3.86,1.08-7.79,1.61-11.67,1.61-6.24,0-11.96-1.34-16.99-4.01-5.49-2.9-8.29-6.99-8.29-12.16,0-3.75,2.35-5.1,4.55-5.1h45.87c7.07,0,10.37-3.82,10.37-12.03,0-5.28-1.38-10.38-4.12-15.14-2.72-4.76-6.89-8.74-12.38-11.84-5.52-3.1-12.66-4.68-21.23-4.68-12.03,0-22.15,3.69-30.06,11-7.84,7.24-11.82,17.44-11.82,30.33s4.06,22.11,12.05,29.06c8.07,7.04,18.2,10.6,30.1,10.6,5.86,0,11.94-.81,18.06-2.41,5.99-1.57,10.57-3.65,13.6-6.17,2.92-2.46,4.41-5,4.41-7.59,0-2.19-.71-3.96-2.26-5.58-1.5-1.58-3.2-2.31-5.35-2.31ZM715.84,111.19c3.96-2.75,9.11-4.14,15.29-4.14,5.79,0,10.64,1.3,14.43,3.85,4.08,2.76,6.15,5.96,6.15,9.54,0,3.07-1.86,3.95-2.67,4.19-.87.25-1.58.36-2.16.36h-32.89c-2.76,0-4.55-1.67-4.55-4.27,0-3.39,2.15-6.59,6.39-9.53Z"/>
      <path class="cls-1" d="M861.21,56.54c-1.87-1.73-4.29-2.57-7.4-2.57-2.9,0-5.17.83-6.94,2.53-1.74,1.68-2.6,3.71-2.6,6.2v41.5l-1.96-1.79-1.95-1.79c-5.79-5.28-12.43-7.96-19.7-7.96-11.45,0-20.68,3.62-27.47,10.76-6.8,7.15-10.26,17.07-10.26,29.47s3.55,22.41,10.55,29.75c6.96,7.31,16.39,11.01,28.02,11.01,7.66,0,14.19-2.4,19.43-7.13l1.34-1.22,1.33-1.22.56,1.72.56,1.73c1.34,4.17,4.23,6.11,9.1,6.11,3.13,0,5.56-.81,7.45-2.46,1.81-1.59,2.65-3.48,2.65-5.97V62.41c0-2.31-.85-4.17-2.7-5.87ZM838.59,149.19c-3.86,4.49-8.97,6.76-15.17,6.76s-11.6-2.27-15.46-6.76c-3.76-4.37-5.67-9.87-5.67-16.31s1.93-12.12,5.74-16.24c3.85-4.16,9.03-6.28,15.39-6.28s11.27,2.12,15.12,6.28c3.81,4.12,5.74,9.57,5.74,16.24s-1.92,11.94-5.68,16.31Z"/>
    </g>
    <g>
      <g>
        <path class="cls-1" d="M160.36,53.96c-14.47,0-28.5,2.84-41.72,8.43-12.76,5.4-24.22,13.12-34.06,22.96-9.84,9.84-17.57,21.3-22.96,34.06-5.59,13.22-8.43,27.25-8.43,41.72,0,6.81,5.54,12.35,12.35,12.35s12.35-5.54,12.35-12.35c0-45.49,36.99-82.48,82.48-82.48,6.81,0,12.34-5.54,12.34-12.35s-5.53-12.35-12.34-12.35ZM160.36,77.65c-46.03,0-83.48,37.45-83.48,83.48,0,6.25-5.09,11.34-11.34,11.34s-11.34-5.09-11.34-11.34c0-14.32,2.81-28.23,8.35-41.33,5.34-12.64,12.99-23.99,22.75-33.74,9.73-9.74,21.08-17.39,33.74-22.75,13.1-5.54,27.01-8.35,41.33-8.35,6.25,0,11.33,5.09,11.33,11.34s-5.08,11.34-11.33,11.34Z"/>
        <path class="cls-1" d="M171.69,66.31c0,6.25-5.08,11.34-11.33,11.34-46.03,0-83.48,37.45-83.48,83.48,0,6.25-5.09,11.34-11.34,11.34s-11.34-5.09-11.34-11.34c0-14.32,2.81-28.23,8.35-41.33,5.34-12.64,12.99-23.99,22.75-33.74,9.73-9.74,21.08-17.39,33.74-22.75,13.1-5.54,27.01-8.35,41.33-8.35,6.25,0,11.33,5.09,11.33,11.34Z"/>
      </g>
      <g>
        <path class="cls-1" d="M160.36,101.2c-16.01,0-31.06,6.23-42.38,17.55-11.32,11.32-17.56,26.37-17.56,42.38,0,6.81,5.54,12.35,12.35,12.35s12.35-5.54,12.35-12.35c0-19.43,15.81-35.25,35.25-35.25,6.81,0,12.34-5.54,12.34-12.35s-5.53-12.34-12.34-12.34ZM160.36,124.88c-19.99,0-36.25,16.26-36.25,36.25,0,6.25-5.09,11.34-11.34,11.34s-11.34-5.09-11.34-11.34c0-15.74,6.13-30.54,17.27-41.67s25.93-17.26,41.67-17.26c6.25,0,11.33,5.08,11.33,11.33s-5.08,11.34-11.33,11.34Z"/>
        <path class="cls-1" d="M171.69,113.54c0,6.25-5.08,11.34-11.33,11.34-19.99,0-36.25,16.26-36.25,36.25,0,6.25-5.09,11.34-11.34,11.34s-11.34-5.09-11.34-11.34c0-15.74,6.13-30.54,17.27-41.67s25.93-17.26,41.67-17.26c6.25,0,11.33,5.08,11.33,11.33Z"/>
      </g>
      <g>
        <path class="cls-1" d="M160.36,148.78c-6.81,0-12.35,5.54-12.35,12.35s5.54,12.35,12.35,12.35,12.34-5.54,12.34-12.35-5.53-12.35-12.34-12.35ZM160.36,172.47c-6.25,0-11.34-5.09-11.34-11.34s5.09-11.34,11.34-11.34,11.33,5.09,11.33,11.34-5.08,11.34-11.33,11.34Z"/>
        <path class="cls-1" d="M171.69,161.13c0,6.25-5.08,11.34-11.33,11.34s-11.34-5.09-11.34-11.34,5.09-11.34,11.34-11.34,11.33,5.09,11.33,11.34Z"/>
      </g>
      <g>
        <path class="cls-1" d="M308.57,128.46c-6.81,0-12.35,5.53-12.35,12.34v20.33c0,6.81,5.54,12.35,12.35,12.35s12.35-5.54,12.35-12.35v-20.33c0-6.81-5.54-12.34-12.35-12.34ZM319.91,161.13c0,6.25-5.09,11.34-11.34,11.34s-11.34-5.09-11.34-11.34v-20.33c0-6.25,5.09-11.33,11.34-11.33s11.34,5.08,11.34,11.33v20.33Z"/>
        <path class="cls-1" d="M319.91,140.8v20.33c0,6.25-5.09,11.34-11.34,11.34s-11.34-5.09-11.34-11.34v-20.33c0-6.25,5.09-11.33,11.34-11.33s11.34,5.08,11.34,11.33Z"/>
      </g>
      <g>
        <path class="cls-1" d="M213.74,53.97c-6.81,0-12.34,5.53-12.34,12.34v94.83c0,6.81,5.53,12.35,12.34,12.35s12.35-5.54,12.35-12.35v-94.83c0-6.81-5.54-12.34-12.35-12.34ZM225.09,161.13c0,6.25-5.09,11.34-11.34,11.34s-11.33-5.09-11.33-11.34v-94.83c0-6.25,5.08-11.33,11.33-11.33s11.34,5.08,11.34,11.33v94.83Z"/>
        <path class="cls-1" d="M225.09,66.31v94.83c0,6.25-5.09,11.34-11.34,11.34s-11.33-5.09-11.33-11.34v-94.83c0-6.25,5.08-11.33,11.33-11.33s11.34,5.08,11.34,11.33Z"/>
      </g>
      <g>
        <path class="cls-1" d="M261.16,91.21c-6.81,0-12.34,5.54-12.34,12.35v58.03l.02.28c.38,6.51,5.79,11.6,12.32,11.6s11.94-5.1,12.32-11.6l.03-.41v-57.9c0-6.81-5.54-12.35-12.35-12.35ZM272.5,161.42l-.03.39c-.35,5.98-5.32,10.66-11.31,10.66s-10.96-4.68-11.31-10.67l-.02-.25v-57.99c0-6.25,5.08-11.34,11.33-11.34s11.34,5.09,11.34,11.34v57.86Z"/>
        <path class="cls-1" d="M272.5,103.56v57.86l-.03.39c-.35,5.98-5.32,10.66-11.31,10.66s-10.96-4.68-11.31-10.67l-.02-.25v-57.99c0-6.25,5.08-11.34,11.33-11.34s11.34,5.09,11.34,11.34Z"/>
      </g>
    </g>
  </g>
</svg>