<?xml version="1.0" encoding="UTF-8"?>
<svg id="design" xmlns="http://www.w3.org/2000/svg" viewBox="0 0 512 512">
  <g>
    <path d="M102.59,396.3c-9.3,0-17.69-2.25-25.17-6.74-7.49-4.49-13.39-10.6-17.73-18.32-4.33-7.72-6.5-16.23-6.5-25.53s2.17-18.16,6.5-25.65,10.2-13.39,17.61-17.73c7.41-4.33,15.84-6.5,25.29-6.5s17.85,2.17,25.17,6.5c7.33,4.33,13.08,10.24,17.26,17.73,4.18,7.49,6.26,16.04,6.26,25.65s-2.13,18.01-6.38,25.65c-4.26,7.64-10.05,13.71-17.38,18.2-7.33,4.49-15.64,6.74-24.94,6.74ZM102.59,377.4c8.04,0,14.62-2.99,19.74-8.98,5.12-5.99,7.68-13.56,7.68-22.7s-2.56-16.62-7.68-22.45c-5.12-5.83-11.7-8.75-19.74-8.75s-14.93,2.92-20.21,8.75c-5.28,5.83-7.92,13.32-7.92,22.45s2.64,16.71,7.92,22.7c5.28,5.99,12.01,8.98,20.21,8.98Z"/>
    <path d="M173.74,396.3c-2.84,0-5.32-.99-7.45-2.95-2.13-1.97-3.19-4.29-3.19-6.97v-73.52c0-4.57,1.34-8.15,4.02-10.75,2.68-2.6,6.22-3.9,10.64-3.9h36.88c3.15,0,5.59.87,7.33,2.6,1.74,1.74,2.6,4.1,2.6,7.09,0,2.68-.95,4.97-2.84,6.86-1.89,1.89-4.26,2.84-7.09,2.84h-25.53c-3.15,0-4.73,1.58-4.73,4.73v10.64c0,3.15,1.58,4.73,4.73,4.73h22.22c2.99,0,5.4.87,7.21,2.6,1.81,1.74,2.72,4.02,2.72,6.86,0,2.68-.99,4.92-2.95,6.74-1.97,1.81-4.29,2.72-6.97,2.72h-22.22c-3.15,0-4.73,1.58-4.73,4.73v25.06c0,2.68-1.07,5.01-3.19,6.97-2.13,1.97-4.61,2.95-7.44,2.95Z"/>
    <path d="M265.22,396.3c-10.72,0-19.74-3.19-27.07-9.57-7.33-6.38-10.99-15.17-10.99-26.36s3.58-20.8,10.75-27.42c7.17-6.62,16.19-9.93,27.07-9.93,7.72,0,14.1,1.42,19.15,4.26,5.04,2.84,8.82,6.46,11.34,10.88,2.52,4.41,3.78,9.06,3.78,13.94,0,8.2-3.63,12.29-10.87,12.29h-39.24c-1.26,0-1.89.79-1.89,2.36,0,3.63,2.01,6.5,6.03,8.63,4.02,2.13,8.55,3.19,13.59,3.19,3.15,0,6.3-.43,9.45-1.3,3.15-.86,5.91-2.17,8.27-3.9,1.58-1.1,3.23-1.65,4.97-1.65,2.36,0,4.37.87,6.03,2.6,1.65,1.74,2.48,3.78,2.48,6.14,0,2.84-1.5,5.52-4.49,8.04-2.84,2.37-6.98,4.26-12.41,5.67-5.44,1.42-10.76,2.13-15.96,2.13ZM277.51,350.68c.32,0,.75-.08,1.3-.24.55-.16.83-.71.83-1.65,0-2.36-1.46-4.53-4.37-6.5-2.92-1.97-6.66-2.95-11.23-2.95-4.89,0-8.87,1.06-11.94,3.19-3.08,2.13-4.61,4.29-4.61,6.5,0,1.1.63,1.65,1.89,1.65h28.13Z"/>
    <path d="M344.41,396.3c-10.72,0-19.74-3.19-27.07-9.57-7.33-6.38-10.99-15.17-10.99-26.36s3.58-20.8,10.75-27.42c7.17-6.62,16.19-9.93,27.07-9.93,7.72,0,14.1,1.42,19.15,4.26,5.04,2.84,8.82,6.46,11.34,10.88,2.52,4.41,3.78,9.06,3.78,13.94,0,8.2-3.63,12.29-10.87,12.29h-39.24c-1.26,0-1.89.79-1.89,2.36,0,3.63,2.01,6.5,6.03,8.63,4.02,2.13,8.55,3.19,13.59,3.19,3.15,0,6.3-.43,9.45-1.3,3.15-.86,5.91-2.17,8.27-3.9,1.58-1.1,3.23-1.65,4.97-1.65,2.36,0,4.37.87,6.03,2.6s2.48,3.78,2.48,6.14c0,2.84-1.5,5.52-4.49,8.04-2.84,2.37-6.98,4.26-12.41,5.67-5.44,1.42-10.76,2.13-15.96,2.13ZM356.7,350.68c.32,0,.75-.08,1.3-.24.55-.16.83-.71.83-1.65,0-2.36-1.46-4.53-4.37-6.5-2.92-1.97-6.66-2.95-11.23-2.95-4.89,0-8.87,1.06-11.94,3.19-3.08,2.13-4.61,4.29-4.61,6.5,0,1.1.63,1.65,1.89,1.65h28.13Z"/>
    <path d="M420.52,396.3c-10.56,0-19.03-3.35-25.41-10.05-6.38-6.7-9.57-15.64-9.57-26.83s3.11-20.05,9.34-26.59c6.22-6.54,14.53-9.81,24.94-9.81,6.78,0,12.84,2.44,18.2,7.33v-30.97c0-2.68.95-4.92,2.84-6.73,1.89-1.81,4.33-2.72,7.33-2.72,3.15,0,5.71.91,7.68,2.72,1.97,1.81,2.96,3.98,2.96,6.5v87.94c0,2.68-.99,4.89-2.96,6.62-1.97,1.73-4.53,2.6-7.68,2.6-5.04,0-8.27-2.21-9.69-6.62-4.89,4.41-10.88,6.62-17.97,6.62ZM422.17,377.16c4.73,0,8.55-1.69,11.46-5.08,2.92-3.39,4.37-7.6,4.37-12.65s-1.46-9.37-4.37-12.53c-2.92-3.15-6.74-4.73-11.46-4.73s-8.79,1.58-11.7,4.73c-2.92,3.15-4.37,7.33-4.37,12.53s1.46,9.26,4.37,12.65c2.92,3.39,6.81,5.08,11.7,5.08Z"/>
  </g>
  <path d="M232.79,115.7c-14.54,0-28.65,2.85-41.95,8.47-12.83,5.43-24.36,13.2-34.25,23.09-9.89,9.89-17.66,21.41-23.09,34.25-5.62,13.29-8.47,27.41-8.47,41.95,0,7.34,5.95,13.3,13.3,13.3s13.3-5.95,13.3-13.3c0-44.75,36.41-81.16,81.16-81.16,7.34,0,13.3-5.95,13.3-13.3s-5.95-13.3-13.3-13.3Z"/>
  <path d="M232.79,162.75c-16.21,0-31.46,6.31-42.92,17.78-11.47,11.47-17.78,26.71-17.78,42.92,0,7.34,5.95,13.3,13.3,13.3s13.3-5.95,13.3-13.3c0-18.81,15.3-34.11,34.11-34.11,7.34,0,13.3-5.95,13.3-13.3s-5.95-13.3-13.3-13.3Z"/>
  <circle cx="232.79" cy="223.45" r="13.3"/>
  <path d="M367.14,203.2v20.25c0,7.34,5.95,13.3,13.3,13.3s13.3-5.95,13.3-13.3v-20.25c0-7.34-5.95-13.3-13.3-13.3s-13.3,5.95-13.3,13.3Z"/>
  <path d="M272.68,128.99v94.46c0,7.34,5.95,13.3,13.3,13.3s13.3-5.95,13.3-13.3v-94.46c0-7.34-5.95-13.3-13.3-13.3s-13.3,5.95-13.3,13.3Z"/>
  <path d="M319.91,166.1v58.15h.03c.41,6.97,6.2,12.5,13.27,12.5s12.86-5.53,13.27-12.5h.03v-58.15c0-7.34-5.95-13.3-13.3-13.3s-13.3,5.95-13.3,13.3Z"/>
</svg>