<svg xmlns="http://www.w3.org/2000/svg" 
    width="300px" 
    height="300px" 
    viewBox="0 0 24 24">
	<path d="M0 0H24L0 24V0z" fill="#FFFFFF"/>
	<path d="M0 24H24V0L0 24z" fill="#F46A1F"/>
	<path d="M0 0h24v1h-23v22h22v-22h1v23h-24v-24z" fill="#000000"/>
    <path d="M12 4.76c0.65 0 1.19 -0.53 1.19 -1.19s-0.53 -1.19 -1.19 -1.19c-1.3 0 -2.56 0.25 -3.74 0.76 c-1.14 0.48 -2.17 1.18 -3.05 2.06 c-0.88 0.88 -1.58 1.91 -2.06 3.05 c-0.5 1.19 -0.76 2.44 -0.76 3.74 c0 0.65 0.53 1.19 1.19 1.19s1.19 -0.53 1.19 -1.19c0 -3.99 3.25 -7.24 7.24 -7.24Z" fill="#000000"/>
    <path d="M13.19 7.77c0 -0.65 -0.53 -1.19 -1.19 -1.19 c-1.45 0 -2.81 0.56 -3.83 1.59s-1.59 2.38 -1.59 3.83c0 0.65 0.53 1.19 1.19 1.19s1.19 -0.53 1.19 -1.19c0 -1.68 1.36 -3.04 3.04 -3.04c0.65 0 1.19 -0.53 1.19 -1.19Z" fill="#000000"/>
    <path d="M13.81 19.24h-1.81c-0.65 0 -1.19 0.53 -1.19 1.19s0.53 1.19 1.19 1.19h1.81c0.65 0 1.19 -0.53 1.19 -1.19s-0.53 -1.19 -1.19 -1.19Z" fill="#000000"/>
    <path d="M20.42 10.81h-8.42c-0.25 0 -0.47 0.07 -0.66 0.2c-0.32 0.21 -0.52 0.57 -0.52 0.98s0.21 0.77 0.52 0.98c0.19 0.13 0.42 0.2 0.66 0.2h8.42c0.65 0 1.19 -0.53 1.19 -1.19s-0.53 -1.19 -1.19 -1.19Z" fill="#000000"/>
    <path d="M17.12 15.03h-5.19c-0.62 0.04 -1.11 0.55 -1.11 1.19s0.49 1.15 1.11 1.18s5.19 0 5.19 0c0.65 0 1.19 -0.53 1.19 -1.19s-0.53 -1.19 -1.19 -1.19Z" fill="#000000"/>
</svg>